 http://imageshack.us/a/img217/3482/releasek.jpg

 
http://i.imgbox.com/achcZ2z5.png


 
http://thissongissick.com/blog/wp-content/uploads/2012/10/Calvin-Harris-I-Need-you-Love-feat-Ellie-Goulding.jpeg



[code]General
Complete name                            :Calvin Harris - I Need Your Love ft. Ellie Goulding.mp4
Format                                   : MPEG-4
Format profile                           : Base Media / Version 2
Codec ID                                 : mp42
File size                                : 56.9 MiB
Duration                                 : 3mn 46s
Overall bit rate mode                    : Variable
Overall bit rate                         : 2 104 Kbps
Encoded date                             : UTC 2013-04-18 05:39:13
Tagged date                              : UTC 2013-04-18 05:47:40
Writing application                      : HandBrake 0.9.8 2012071700

Video
ID                                       : 1
Format                                   : AVC
Format/Info                              : Advanced Video Codec
Format profile                           : Main@L4.0
Format settings, CABAC                   : Yes
Format settings, ReFrames                : 4 frames
Codec ID                                 : avc1
Codec ID/Info                            : Advanced Video Coding
Duration                                 : 3mn 46s
Bit rate mode                            : Variable
Bit rate                                 : 2 000 Kbps
Width                                    : 1 920 pixels
Height                                   : 1 080 pixels
Display aspect ratio                     : 16:9
Frame rate mode                          : Constant
Frame rate                               : 25.000 fps
Color space                              : YUV
Chroma subsampling                       : 4:2:0
Bit depth                                : 8 bits
Scan type                                : Progressive
Bits/(Pixel*Frame)                       : 0.039
Stream size                              : 54.3 MiB (95%)
Writing library                          : x264 core 120
Encoded date                             : UTC 2013-04-18 05:39:13
Tagged date                              : UTC 2013-04-18 05:47:39
Color primaries                          : BT.709
Transfer characteristics                 : BT.709
Matrix coefficients                      : BT.709

Audio
ID                                       : 2
Format                                   : AAC
Format/Info                              : Advanced Audio Codec
Format profile                           : LC
Codec ID                                 : 40
Duration                                 : 3mn 46s
Bit rate mode                            : Variable
Bit rate                                 : 96.0 Kbps
Maximum bit rate                         : 150 Kbps
Channel(s)                               : 2 channels
Channel positions                        : Front: L R
Sampling rate                            : 44.1 KHz
Compression mode                         : Lossy
Delay relative to video                  : 80ms
Stream size                              : 2.57 MiB (5%)
Encoded date                             : UTC 2013-04-18 05:39:13
Tagged date                              : UTC 2013-04-18 05:47:38

[/code]


